{"accessors" : [{"bufferView" : 0, "byteOffset" : 0, "componentType" : 5123, "count" : 1320, "type" : "SCALAR", "max" : [1237], "min" : [0]}, {"bufferView" : 1, "byteOffset" : 0, "componentType" : 5126, "count" : 1238, "type" : "VEC3", "max" : [0.0017555031226947904, 0.0015910379588603973, 0.0019834572449326515], "min" : [-0.0017555031226947904, -0.0015910379588603973, -0.0019834572449326515], "name" : "POSITION"}, {"bufferView" : 1, "byteOffset" : 12, "componentType" : 5126, "count" : 1238, "type" : "VEC3", "max" : [0.7792933583259583, 0.7255868911743164, 0.9587287306785583], "min" : [-0.7792932987213135, -0.7255868315696716, -0.9587287306785583], "name" : "NORMAL"}], "asset" : {"generator" : "Aspose.3D 24.1.0", "version" : "2.0"}, "buffers" : [{"uri" : "data:application/octet-stream;base64,", "byteLength" : 34328}], "bufferViews" : [{"buffer" : 0, "byteOffset" : 0, "byteLength" : 2640, "target" : 34963}, {"buffer" : 0, "byteOffset" : 2644, "byteLength" : 31680, "byteStride" : 24, "target" : 34962}], "materials" : [{"name" : "Orange", "pbrMetallicRoughness" : {"baseColorFactor" : [0.310810446739197, 0.136332169175148, 0.0352165177464485, 1], "metallicFactor" : 0.400000005960464, "roughnessFactor" : 0.272165536880493}, "emissiveFactor" : [0, 0, 0], "alphaMode" : "OPAQUE", "doubleSided" : false}], "meshes" : [{"primitives" : [{"attributes" : {"POSITION" : 1, "NORMAL" : 2}, "indices" : 0, "material" : 0, "mode" : 4}]}], "nodes" : [{"matrix" : [100, 0, 0, 0, 0, -1.3435885581891682E-05, -99.99999657714513, 0, 0, 99.99999657714513, -1.3435885581891682E-05, 0, 0, 0, 0, 1], "mesh" : 0, "name" : "Collectible_Gear"}, {"children" : [0], "name" : "RootNode"}], "scene" : 0, "scenes" : [{"nodes" : [1]}]}